<svg width="90" height="90" viewBox="0 0 90 90" fill="none" xmlns="http://www.w3.org/2000/svg">
<path d="M71.5959 52.5924C70.5405 48.9578 68.5881 48.8343 68.1687 48.7365C68.1198 48.7248 68.0709 48.7155 68.0219 48.7039C66.7475 47.5249 67.6165 42.6088 67.6165 42.6088C67.6165 40.689 67.281 39.3121 66.7871 38.3219L66.7359 37.828L67.2904 37.5065L67.5723 37.3434L68.7489 36.6631C68.8235 36.5885 68.8235 36.4697 68.7489 36.3975L62.4958 33.795C62.4236 33.7228 62.3047 33.7228 62.2302 33.795L55.9771 36.3975C55.9025 36.4697 55.9025 36.5885 55.9771 36.6631L56.4431 36.9333L56.4128 37.3457C56.252 37.3737 56.1309 37.5111 56.1309 37.6789C56.1309 37.8303 56.2287 37.9585 56.3662 38.0004L56.0936 41.8213L56.471 42.9513L56.8461 41.8213L56.5735 38.0004C56.711 37.9561 56.8089 37.828 56.8089 37.6789C56.8089 37.5111 56.6877 37.3713 56.5269 37.3457L56.499 36.966L57.1514 37.3434L57.1793 37.3597L57.6966 37.6603L57.5754 39.2143C57.2888 40.0973 57.1118 41.2087 57.1118 42.6089C57.1118 42.6089 57.9831 47.5249 56.7064 48.7039C56.6574 48.7132 56.6085 48.7249 56.5596 48.7365C56.28 48.8018 55.3271 48.8833 54.4091 49.99C55.5041 50.6121 56.8415 51.9494 57.7199 54.9689C57.8084 55.2788 57.8387 55.6026 57.834 55.9219C59.2902 56.1222 60.8954 56.2038 62.3633 56.2038C66.0398 56.2061 70.5924 55.7005 71.4566 54.065C71.6873 53.6223 71.7385 53.0865 71.5964 52.5925L71.5959 52.5924ZM65.8063 48.4592C65.79 48.5967 65.7271 48.7271 65.6315 48.853C65.1725 49.4401 63.8818 50.2858 62.3627 50.2858C60.8436 50.2858 59.5529 49.4377 59.0939 48.853C58.9961 48.7271 58.9355 48.5967 58.9192 48.4592V48.4569C58.9425 48.4499 58.9937 48.4313 59.0636 48.401C59.0916 48.387 59.1242 48.373 59.1545 48.3567C59.4341 48.2122 59.8395 47.907 59.8395 47.3712H59.8418C60.2798 47.8045 60.7691 48.1517 61.2886 48.3567C61.6404 48.4942 62.0039 48.571 62.379 48.571C62.7564 48.571 63.1199 48.4942 63.4693 48.3567C63.9842 48.1517 64.4689 47.8115 64.9045 47.3828C64.9068 47.3852 64.9092 47.3852 64.9138 47.3875C64.9255 48.0771 65.6174 48.38 65.8038 48.4475C65.8062 48.4522 65.8062 48.4545 65.8062 48.4592L65.8063 48.4592ZM66.6054 43.3475C66.5378 43.7366 66.384 44.0558 66.2233 44.1933C66.1604 44.2492 66.0928 44.2748 66.0299 44.2632C65.9926 44.2562 65.9623 44.2399 65.9321 44.2119C65.5756 45.3186 64.8953 46.4206 64.0356 47.0846C63.5346 47.4714 62.9732 47.709 62.3791 47.709C61.7826 47.709 61.2165 47.4691 60.7132 47.0776C59.8581 46.4159 59.1825 45.3163 58.8283 44.2119C58.798 44.2399 58.7677 44.2562 58.7305 44.2632C58.6582 44.2772 58.579 44.2399 58.5068 44.1653C58.3554 44.0162 58.2202 43.711 58.155 43.3499C58.0688 42.8699 58.1387 42.4482 58.3064 42.3271C58.3297 42.3108 58.353 42.2991 58.3787 42.2945C58.4392 42.2851 58.5021 42.3084 58.565 42.3574C58.565 42.3574 58.565 42.3527 58.5674 42.3434C58.5837 42.185 58.7491 40.8034 59.5925 40.2186L61.475 40.9129C62.1717 41.1855 62.3254 41.2414 62.7867 41.0853L65.9483 42.7116L66.3817 42.2945C66.3957 42.2968 66.412 42.3015 66.426 42.3085C66.617 42.397 66.6962 42.842 66.6054 43.3476L66.6054 43.3475Z" fill="#1C3F94"/>
<path d="M35.2619 49.9877C34.3439 48.8833 33.391 48.7995 33.1137 48.7342C33.0648 48.7226 33.0159 48.7133 32.9669 48.7016C31.6925 47.5227 32.5615 42.6066 32.5615 42.6066C32.5615 40.6867 32.2284 39.3099 31.7321 38.3196L31.6832 37.8257L32.2377 37.5042L32.5196 37.3411L33.6962 36.6608C33.7685 36.5863 33.7685 36.4674 33.6962 36.3952L27.4431 33.7928C27.3686 33.7205 27.2498 33.7205 27.1775 33.7928L20.922 36.3999C20.8475 36.4721 20.8475 36.5909 20.922 36.6655L21.388 36.9357L21.3577 37.3481C21.197 37.3761 21.0758 37.5135 21.0758 37.6813C21.0758 37.8327 21.1737 37.9609 21.3111 38.0028L21.0385 41.8237L21.416 42.9537L21.7934 41.8237L21.5208 38.0028C21.6583 37.9585 21.7561 37.8304 21.7561 37.6813C21.7561 37.5135 21.6326 37.3737 21.4742 37.3481L21.4463 36.9683L22.0986 37.3458L22.1266 37.3621L22.6438 37.6626L22.5227 39.2167C22.2361 40.0997 22.059 41.2111 22.059 42.6113C22.059 42.6113 22.9281 47.5273 21.6536 48.7063C21.6024 48.7156 21.5535 48.7273 21.5069 48.7389C21.0875 48.8368 19.1351 48.9602 18.0797 52.5948C17.9375 53.0887 17.9865 53.6246 18.2194 54.0649C19.0838 55.7005 23.634 56.2037 27.3128 56.2037C28.7806 56.2037 30.3835 56.1221 31.8421 55.9218C31.8374 55.6026 31.8677 55.2811 31.9562 54.9688C32.8299 51.947 34.1672 50.6097 35.2623 49.9876L35.2619 49.9877ZM30.7513 48.4593C30.735 48.5968 30.6744 48.7273 30.5765 48.8531C30.1176 49.4402 28.8268 50.2859 27.3077 50.2859C25.7887 50.2859 24.498 49.4378 24.0389 48.8531C23.9411 48.7273 23.8805 48.5968 23.8642 48.4593V48.457C23.8875 48.45 23.9411 48.4314 24.0086 48.4011C24.0366 48.3871 24.0692 48.3731 24.1018 48.3568C24.3791 48.2124 24.7891 47.9072 24.7891 47.3713C25.2271 47.8047 25.7164 48.1518 26.236 48.3568C26.5855 48.4943 26.9512 48.5712 27.3263 48.5712C27.7014 48.5712 28.0672 48.4943 28.4167 48.3568C28.9316 48.1518 29.4162 47.8116 29.8518 47.3829C29.8565 47.3853 29.8565 47.3853 29.8612 47.3876C29.8728 48.0772 30.5648 48.3801 30.7512 48.4477V48.4593L30.7513 48.4593ZM31.5528 43.3476C31.4852 43.7367 31.3314 44.0559 31.1707 44.1934C31.1054 44.2493 31.0402 44.2749 30.9773 44.2633C30.94 44.2563 30.9097 44.24 30.8795 44.212C30.523 45.3187 29.8427 46.4207 28.9829 47.0847C28.482 47.4715 27.9206 47.7092 27.3264 47.7092C26.73 47.7092 26.1639 47.4692 25.6606 47.0778C24.8055 46.4161 24.1299 45.3164 23.7757 44.212C23.7454 44.24 23.7151 44.2563 23.6802 44.2633C23.6056 44.2773 23.5287 44.24 23.4542 44.1654C23.3051 44.0163 23.1676 43.7111 23.1024 43.35C23.0162 42.87 23.0861 42.4483 23.2538 42.3272C23.2771 42.3109 23.3004 42.2993 23.3284 42.2946C23.389 42.2853 23.4519 42.3086 23.5148 42.3575C23.5148 42.3575 23.5148 42.3528 23.5171 42.3435C23.5334 42.1851 23.6988 40.8035 24.5423 40.2187L26.4247 40.913C27.1214 41.1856 27.2752 41.2415 27.7364 41.0854L30.8957 42.7117L31.3291 42.2946C31.3454 42.297 31.3594 42.3016 31.371 42.3086C31.5621 42.3972 31.6436 42.8422 31.5528 43.3477L31.5528 43.3476Z" fill="#1C3F94"/>
<path d="M52.5754 49.9901C52.5101 49.9761 52.4449 49.9598 52.3797 49.9482C50.6789 48.3779 51.8391 41.8216 51.8391 41.8216C51.8391 39.2611 51.3941 37.4252 50.7348 36.1042L50.6695 35.4472L51.4081 35.0185L51.7832 34.8018L53.3512 33.8955C53.4491 33.7977 53.4491 33.6392 53.3512 33.539L45.0129 30.0722C44.964 30.0233 44.9011 30 44.8359 30C44.773 30 44.7077 30.0233 44.6588 30.0722L36.3223 33.5414C36.2245 33.6392 36.2245 33.7977 36.3223 33.8978L36.9444 34.2566L36.9048 34.8065C36.6905 34.8414 36.5297 35.0278 36.5297 35.2515C36.5297 35.4518 36.6625 35.6219 36.8442 35.6825L36.4808 40.7756L36.984 42.2806L37.4849 40.7756L37.1215 35.6825C37.3032 35.6243 37.436 35.4542 37.436 35.2515C37.436 35.0278 37.2729 34.8414 37.0609 34.8065L37.026 34.3009L37.895 34.8041L37.9299 34.8251L38.6195 35.2259L38.4564 37.2994C38.072 38.4784 37.8367 39.9601 37.8367 41.8263C37.8367 41.8263 38.9969 48.3824 37.2961 49.9528C37.2309 49.9645 37.1633 49.9808 37.1004 49.9948C36.5389 50.1253 33.9388 50.293 32.5292 55.1368C32.3405 55.7961 32.4058 56.5114 32.7156 57.0962C33.8689 59.2746 39.9314 59.9479 44.833 59.9479H44.8399H44.8516C49.7536 59.9479 55.8112 59.2746 56.9623 57.0962C57.2722 56.5091 57.3398 55.7938 57.1487 55.1368C55.7368 50.2884 53.1367 50.1206 52.5752 49.9901L52.5754 49.9901ZM49.4254 49.622C49.4045 49.8037 49.3206 49.9808 49.1901 50.1485C48.5797 50.9314 46.8603 52.059 44.8333 52.059C42.8064 52.059 41.0893 50.929 40.4765 50.1485C40.346 49.9831 40.2645 49.806 40.2435 49.622C40.2738 49.6103 40.3437 49.587 40.4369 49.5451C40.4741 49.5288 40.5184 49.5078 40.5603 49.4845C40.9308 49.2911 41.476 48.8834 41.476 48.1705C42.0608 48.7506 42.7108 49.2096 43.4051 49.4845C43.8711 49.6709 44.3604 49.7734 44.859 49.7734C45.3599 49.7734 45.8468 49.6709 46.3151 49.4845C47.0024 49.2119 47.6478 48.7576 48.2279 48.1868C48.2326 48.1891 48.2349 48.1914 48.2396 48.1938C48.2535 49.1141 49.1762 49.5172 49.4255 49.608C49.4278 49.6103 49.4278 49.615 49.4255 49.622L49.4254 49.622ZM50.4949 42.807C50.404 43.3243 50.199 43.7529 49.9846 43.9347C49.9124 43.9976 49.8378 44.0302 49.7656 44.0302C49.754 44.0302 49.74 44.0279 49.7283 44.0255C49.6794 44.0162 49.6375 43.9929 49.5979 43.958C49.1226 45.4328 48.2163 46.9029 47.07 47.7883C46.4036 48.3032 45.6534 48.62 44.8636 48.62C44.0668 48.62 43.3142 48.3008 42.6432 47.7789C41.5039 46.8959 40.6023 45.4304 40.1294 43.9603C40.0897 43.9976 40.0478 44.0209 39.9989 44.0279C39.9849 44.0302 39.9733 44.0325 39.9593 44.0325C39.8731 44.0325 39.7845 43.9836 39.6983 43.8974C39.498 43.697 39.3162 43.2917 39.23 42.8094C39.1159 42.171 39.2067 41.6072 39.4304 41.4464C39.4607 41.4254 39.4933 41.4091 39.5283 41.4021C39.5399 41.3998 39.5515 41.3998 39.5655 41.3998C39.6354 41.3998 39.7053 41.4301 39.7775 41.486C39.7775 41.486 39.7775 41.479 39.7799 41.4673C39.8008 41.2553 40.0222 39.4148 41.1452 38.6366L43.6544 39.5639C44.2415 39.7945 44.5398 39.9087 44.8357 39.9087C45.0081 39.9087 45.1782 39.8714 45.4042 39.7945L49.6165 41.9636L50.1943 41.4068C50.2153 41.4114 50.2339 41.4184 50.2526 41.4254C50.5065 41.5396 50.616 42.1313 50.4949 42.807L50.4949 42.807Z" fill="#1C3F94"/>
<circle cx="45" cy="45" r="44.5" stroke="#1C3F94"/>
</svg>
