<svg width="90" height="90" viewBox="0 0 90 90" fill="none" xmlns="http://www.w3.org/2000/svg">
<rect width="90" height="90" fill="#F5F5F5"/>
<g id="Termplate 1">
<rect width="1440" height="1116" transform="translate(-695 -905)" fill="white"/>
<g id="KNOWLEDGE">
<g id="diversity_icon">
<circle id="Ellipse 3" cx="45" cy="45" r="44.5" stroke="#1C3F94"/>
<g id="ARC">
<g id="Group">
<path id="Vector" d="M46.9741 25.3729C46.6628 25.4705 46.3306 25.5216 45.9891 25.5216C45.0156 25.5216 44.1398 25.1034 43.5311 24.439C42.9874 23.8466 42.6529 23.0543 42.6529 22.1854C42.6529 20.3454 44.1467 18.8516 45.9891 18.8516C47.8314 18.8516 49.3229 20.3454 49.3229 22.1854C49.3229 23.6839 48.3355 24.9524 46.9741 25.3729Z" fill="#1C3F94"/>
<path id="Vector_2" d="M31.9288 33.5972C32.7141 27.9262 37.8322 23.8861 43.5311 24.439C44.1398 25.1035 45.0156 25.5217 45.9914 25.5217C46.3329 25.5217 46.6651 25.4705 46.9764 25.373C50.7865 27.134 53.2097 30.9627 53.1725 35.1584C52.8984 39.5145 56.0882 43.32 60.428 43.8055C59.6892 44.9532 58.6135 45.8453 57.3497 46.3564C52.6451 44.5978 49.6435 39.9675 49.9595 34.9563C49.9107 32.0894 48.2287 29.5037 45.6266 28.2979C44.8762 27.9239 44.0585 27.7032 43.2221 27.6451C39.4097 27.2757 35.9364 29.8568 35.193 33.6135C34.1127 33.4625 33.0138 33.4578 31.9312 33.5972L31.9288 33.5972Z" fill="#1C3F94"/>
<path id="Vector_3" d="M53.4675 29.8452C59.1037 28.8392 64.5284 32.4588 65.7644 38.0486C65.4879 38.5341 65.3323 39.0917 65.3323 39.6911C65.3323 40.4043 65.5576 41.0664 65.941 41.6101C65.4438 45.778 62.5514 49.2675 58.5484 50.5267C54.3201 51.6116 51.6879 55.8236 52.5661 60.0961C51.2465 59.7499 50.0663 59.0018 49.1881 57.9564C49.4065 52.9382 52.8821 48.6541 57.7469 47.4066C60.4581 46.4749 62.398 44.075 62.7395 41.2291C62.8627 40.3997 62.8209 39.554 62.6164 38.7432C61.7917 35.0028 58.2627 32.4983 54.4595 32.9514C54.269 31.8757 53.9368 30.8303 53.4675 29.8452Z" fill="#1C3F94"/>
<path id="Vector_4" d="M47.3528 31.2972C48.217 32.3543 48.7328 33.653 48.828 35.0144C45.7033 38.9476 40.3714 40.3694 35.7017 38.5178C32.9603 37.6768 29.9796 38.4783 28.0304 40.5809C27.4449 41.1802 26.9803 41.8888 26.669 42.6648C25.138 46.1775 26.5226 50.278 29.8658 52.1459C29.3872 53.1287 29.041 54.1695 28.8412 55.2428C23.6906 52.7453 21.4301 46.6259 23.7162 41.3777C24.8545 40.8596 25.6491 39.7213 25.6677 38.3924C28.5183 35.3141 32.9092 34.1896 36.8889 35.5232C40.9453 37.1308 45.5523 35.2723 47.3528 31.2972Z" fill="#1C3F94"/>
<path id="Vector_5" d="M19 38.3459C19 36.5036 20.4915 35.0097 22.3338 35.0097C24.1762 35.0097 25.6677 36.5036 25.6677 38.3459C25.6677 38.3622 25.6677 38.3784 25.6677 38.3947C25.6514 39.7213 24.8546 40.862 23.7162 41.3801C23.2957 41.5729 22.8264 41.6797 22.3338 41.6797C20.4915 41.6797 19 40.1859 19 38.3459V38.3459Z" fill="#1C3F94"/>
<path id="Vector_6" d="M65.7621 38.0485C66.3336 37.0379 67.4185 36.3549 68.6638 36.3549C70.5061 36.3549 71.9976 37.8487 71.9976 39.6911C71.9976 41.5334 70.5038 43.0249 68.6638 43.0249C67.537 43.0249 66.5404 42.465 65.9386 41.6101C65.5553 41.0664 65.33 40.4066 65.33 39.6911C65.33 39.094 65.4856 38.5341 65.7621 38.0485Z" fill="#1C3F94"/>
<path id="Vector_7" d="M31.42 39.8607C32.6932 39.3658 34.0848 39.2775 35.4114 39.6051C38.1853 43.7939 37.8903 49.3023 34.6888 53.1728C33.0417 55.5216 32.8837 58.6022 34.28 61.1067C34.6679 61.8501 35.1976 62.5076 35.8412 63.0466C38.708 65.5882 43.0339 65.5394 45.845 62.9374C46.6303 63.6971 47.5154 64.3453 48.4749 64.868C44.5068 68.9964 37.9902 69.2543 33.7061 65.4581C33.5598 64.1594 32.6676 63.0884 31.4688 62.6795C29.4197 59.0158 29.7101 54.4924 32.2076 51.1191C34.9909 47.7573 34.6447 42.8042 31.4224 39.8607L31.42 39.8607Z" fill="#1C3F94"/>
<path id="Vector_8" d="M61.0459 51.0726C62.0101 50.5592 62.8999 49.9203 63.6944 49.1676C66.394 54.2159 64.6284 60.4957 59.6915 63.3974C59.4778 63.3532 59.2547 63.33 59.0271 63.33C57.9375 63.33 56.9663 63.8527 56.3577 64.6635C52.2409 65.479 48.0265 63.8086 45.5918 60.3911C43.2546 56.7041 38.4362 55.503 34.64 57.659C34.5634 56.2976 34.9095 54.9431 35.6321 53.7861C40.4714 52.4433 45.6197 54.4227 48.31 58.6673C50.0315 60.958 52.9146 62.0615 55.7281 61.5063C56.5528 61.3669 57.345 61.0648 58.0559 60.6188C61.3573 58.6766 62.649 54.5482 61.0436 51.0703L61.0459 51.0726Z" fill="#1C3F94"/>
<path id="Vector_9" d="M59.027 63.3323C59.2547 63.3323 59.4754 63.3555 59.6915 63.3997C61.2132 63.7064 62.3609 65.0538 62.3609 66.6662C62.3609 68.5085 60.867 70 59.027 70C57.187 70 55.6909 68.5085 55.6909 66.6662C55.6909 65.9158 55.9394 65.2234 56.3576 64.6658C56.9663 63.855 57.9351 63.3323 59.027 63.3323Z" fill="#1C3F94"/>
<path id="Vector_10" d="M31.4688 62.6795C32.6676 63.0884 33.5574 64.1594 33.7061 65.4581C33.72 65.5812 33.727 65.7066 33.727 65.8367C33.727 67.6768 32.2332 69.1706 30.3932 69.1706C28.5532 69.1706 27.057 67.6768 27.057 65.8367C27.057 63.9967 28.5508 62.5029 30.3932 62.5029C30.7695 62.5029 31.132 62.5656 31.4688 62.6818L31.4688 62.6795Z" fill="#1C3F94"/>
</g>
</g>
</g>
</g>
</g>
</svg>
