<svg width="90" height="90" viewBox="0 0 90 90" fill="none" xmlns="http://www.w3.org/2000/svg">
<path d="M23 58.1129V64.5895H51.7232L51.7211 58.1129C51.7211 54.1851 48.6953 51.157 44.7651 51.157H30.0075C26.2372 51.157 23.0001 54.2367 23.0001 58.1129H23Z" fill="#1C3F94"/>
<path d="M37.3348 48.2912C41.7417 48.2912 45.3525 44.6806 45.3525 40.2734C45.3525 35.8662 41.742 32.2556 37.3348 32.2556C32.9278 32.2556 29.317 35.8662 29.317 40.2734C29.3709 44.6804 32.9276 48.2912 37.3348 48.2912Z" fill="#1C3F94"/>
<path d="M56.1277 49.4586C59.6325 49.4586 62.3929 46.5926 62.3929 43.1934C62.3929 39.7964 59.5248 36.8766 56.1277 36.8766C52.6228 36.8766 49.8624 39.7427 49.8624 43.1419C49.8624 46.5388 52.6227 49.4586 56.1277 49.4586Z" fill="#1C3F94"/>
<path d="M61.9137 51.7421H51.0842C52.8885 53.2808 54.0042 55.6181 54.0042 58.1671L54.2697 64.5922H67.4367V57.2094C67.4367 54.1836 64.9937 51.7426 61.9142 51.7426L61.9137 51.7421Z" fill="#1C3F94"/>
<path d="M56.182 23.5498H57.4035V27.0546H56.182V23.5498Z" fill="#1C3F94"/>
<path d="M53.8444 25.9389H55.0659V27.1064H53.8444V25.9389Z" fill="#1C3F94"/>
<path d="M51.5095 20.0448H57.4036V22.4339H51.5095V20.0448Z" fill="#1C3F94"/>
<path d="M53.8444 23.5498H55.0659V24.7174H53.8444V23.5498Z" fill="#1C3F94"/>
<path d="M51.5095 23.5498H52.731V24.7174H51.5095V23.5498Z" fill="#1C3F94"/>
<path d="M51.5095 25.9389H52.731V27.1064H51.5095V25.9389Z" fill="#1C3F94"/>
<path d="M63.2409 21.0009C61.9136 16.0112 56.818 12.9853 51.7743 14.3126C46.7846 15.6398 43.7566 20.7891 45.0838 25.7812C45.7205 28.1703 47.2075 30.0824 49.1196 31.3016L46.6766 35.0719L56.604 32.4713C61.5957 31.142 64.5681 26.0445 63.2409 21.0009ZM58.5166 28.2738H50.3417V18.8773H58.5166V28.2738Z" fill="#1C3F94"/>
<circle cx="45" cy="45" r="44.5" stroke="#1C3F94"/>
</svg>
